<svg width="125" height="123" viewBox="0 0 125 123" fill="none" xmlns="http://www.w3.org/2000/svg">
<g filter="url(#filter0_d_302_2)">
<path d="M62.5 0L116.627 92.25H8.37341L62.5 0Z" fill="#121921"/>
</g>
<foreignObject x="33.4941" y="11" width="38.2236" height="41.4456"><div xmlns="http://www.w3.org/1999/xhtml" style="backdrop-filter:blur(2px);clip-path:url(#bgblur_0_302_2_clip_path);height:100%;width:100%"></div></foreignObject><rect data-figma-bg-blur-radius="4" x="-0.168225" y="0.683878" width="27.3235" height="17.0296" transform="matrix(0.521161 0.853458 -0.857611 0.514298 53.463 15.4757)" fill="#FDB81C" fill-opacity="0.3" stroke="url(#paint0_linear_302_2)"/>
<foreignObject x="65.5361" y="62.1577" width="38.2236" height="41.4456"><div xmlns="http://www.w3.org/1999/xhtml" style="backdrop-filter:blur(2px);clip-path:url(#bgblur_1_302_2_clip_path);height:100%;width:100%"></div></foreignObject><rect data-figma-bg-blur-radius="4" x="-0.168225" y="0.683878" width="27.3235" height="17.0296" transform="matrix(0.521161 0.853458 -0.857611 0.514298 85.505 66.6334)" fill="#FDB81C" fill-opacity="0.3" stroke="url(#paint1_linear_302_2)"/>
<foreignObject x="20.4053" y="20.3657" width="65.7207" height="83.3091"><div xmlns="http://www.w3.org/1999/xhtml" style="backdrop-filter:blur(2px);clip-path:url(#bgblur_2_302_2_clip_path);height:100%;width:100%"></div></foreignObject><path data-figma-bg-blur-radius="4" d="M81.2367 99.1413L59.0181 99.1761L24.9936 43.5117L36.1614 25.3255L81.2367 99.1413Z" fill="#FDB81C" fill-opacity="0.3" stroke="url(#paint2_linear_302_2)"/>
<defs>
<filter id="filter0_d_302_2" x="4.37305" y="0" width="116.254" height="100.25" filterUnits="userSpaceOnUse" color-interpolation-filters="sRGB">
<feFlood flood-opacity="0" result="BackgroundImageFix"/>
<feColorMatrix in="SourceAlpha" type="matrix" values="0 0 0 0 0 0 0 0 0 0 0 0 0 0 0 0 0 0 127 0" result="hardAlpha"/>
<feOffset dy="4"/>
<feGaussianBlur stdDeviation="2"/>
<feComposite in2="hardAlpha" operator="out"/>
<feColorMatrix type="matrix" values="0 0 0 0 0 0 0 0 0 0 0 0 0 0 0 0 0 0 0.25 0"/>
<feBlend mode="normal" in2="BackgroundImageFix" result="effect1_dropShadow_302_2"/>
<feBlend mode="normal" in="SourceGraphic" in2="effect1_dropShadow_302_2" result="shape"/>
</filter>
<clipPath id="bgblur_0_302_2_clip_path" transform="translate(-33.4941 -11)"><rect x="-0.168225" y="0.683878" width="27.3235" height="17.0296" transform="matrix(0.521161 0.853458 -0.857611 0.514298 53.463 15.4757)"/>
</clipPath><clipPath id="bgblur_1_302_2_clip_path" transform="translate(-65.5361 -62.1577)"><rect x="-0.168225" y="0.683878" width="27.3235" height="17.0296" transform="matrix(0.521161 0.853458 -0.857611 0.514298 85.505 66.6334)"/>
</clipPath><clipPath id="bgblur_2_302_2_clip_path" transform="translate(-20.4053 -20.3657)"><path d="M81.2367 99.1413L59.0181 99.1761L24.9936 43.5117L36.1614 25.3255L81.2367 99.1413Z"/>
</clipPath><linearGradient id="paint0_linear_302_2" x1="0" y1="9.01482" x2="28.3235" y2="9.01482" gradientUnits="userSpaceOnUse">
<stop stop-color="#FDB81C"/>
<stop offset="1" stop-color="#C8202F"/>
</linearGradient>
<linearGradient id="paint1_linear_302_2" x1="0" y1="9.01482" x2="28.3235" y2="9.01482" gradientUnits="userSpaceOnUse">
<stop stop-color="#C8202F"/>
<stop offset="1" stop-color="#FDB81C"/>
</linearGradient>
<linearGradient id="paint2_linear_302_2" x1="120.386" y1="51.7213" x2="102.992" y2="107.345" gradientUnits="userSpaceOnUse">
<stop stop-color="#C8202F"/>
<stop offset="1" stop-color="#FDB81C"/>
</linearGradient>
</defs>
</svg>
