<svg width="1047" height="802" viewBox="0 0 1047 802" fill="none" xmlns="http://www.w3.org/2000/svg">
<path d="M757 773.351H700.944L523.434 501.482L345.922 773.351H289.866L523.434 415.63L757 773.351ZM756.134 642.403H700.078L522.566 370.535L345.056 642.403H289L522.566 284.683L756.134 642.403ZM757 509.722H700.944L523.434 237.854L345.922 509.722H289.866L523.434 152L757 509.722Z" fill="url(#paint0_linear_251_143)"/>
<path d="M606.299 127.556L597.988 133.118L523.079 18.2998L18.4639 791.75H1027.69L753.181 370.988L761.491 365.427L1046.16 801.75H0L523.079 0L606.299 127.556Z" fill="#FFD166"/>
<path d="M834.122 384.067L825.179 391.827L759.225 373.03L768.543 440.975L759.6 448.735L747.34 359.334L834.122 384.067Z" fill="#1E3A5F"/>
<path d="M834.122 384.067L825.179 391.827L759.225 373.03L768.543 440.975L759.6 448.735L747.34 359.334L834.122 384.067Z" fill="#1E3A5F"/>
<defs>
<linearGradient id="paint0_linear_251_143" x1="523.433" y1="415.63" x2="523.433" y2="773.351" gradientUnits="userSpaceOnUse">
<stop stop-color="#FDB81C"/>
<stop offset="0.5" stop-color="#C8202F"/>
<stop offset="1" stop-color="#121921"/>
</linearGradient>
</defs>
</svg>
