<svg width="125" height="123" viewBox="0 0 125 123" fill="none" xmlns="http://www.w3.org/2000/svg">
<g filter="url(#filter0_d_302_3)">
<path d="M62.5 0L116.627 92.25H8.37341L62.5 0Z" fill="#121921"/>
</g>
<g filter="url(#filter1_d_302_3)">
<mask id="path-2-outside-1_302_3" maskUnits="userSpaceOnUse" x="5.90177" y="14.9347" width="72.6823" height="74.4646" fill="black">
<rect fill="white" x="5.90177" y="14.9347" width="72.6823" height="74.4646"/>
<path d="M69.9482 56.4519L63.7258 34.0468L44.2248 23.0056L22.8686 29.7961L12.1674 50.4406L18.3898 72.8457L37.8908 83.8869L59.247 77.0964L69.9482 56.4519Z"/>
</mask>
<path d="M69.9482 56.4519L63.7258 34.0468L44.2248 23.0056L22.8686 29.7961L12.1674 50.4406L18.3898 72.8457L37.8908 83.8869L59.247 77.0964L69.9482 56.4519Z" fill="#FDB81C" fill-opacity="0.3" shape-rendering="crispEdges"/>
<path d="M74.7659 55.114C71.5541 56.0059 68.3423 56.8979 65.1306 57.7899C64.3962 54.8344 63.6619 51.879 62.9276 48.9235C61.7922 44.3538 60.6568 39.7841 59.5215 35.2144L61.5759 37.8439C55.1763 33.9855 48.7767 30.1272 42.3772 26.2689L45.3611 26.5793C38.1804 28.6479 30.9997 30.7166 23.819 32.7852L25.6532 31.2396C21.8978 38.0234 18.1423 44.8072 14.3869 51.5911L14.5762 49.7716C16.4459 57.2967 18.3156 64.8219 20.1853 72.347L19.3079 71.2241C25.7075 75.0824 32.1071 78.9408 38.5067 82.7991L37.5121 82.6957C44.6927 80.627 51.8734 78.5584 59.0541 76.4898L58.6819 76.8034C60.9624 72.6839 63.2429 68.5644 65.5234 64.4449C66.9983 61.7806 68.4733 59.1163 69.9482 56.4519C68.6213 59.193 67.2943 61.934 65.9673 64.675C63.9156 68.9131 61.8639 73.1512 59.8122 77.3893L59.6762 77.6349L59.4399 77.703C52.3831 80.1614 45.3264 82.6197 38.2696 85.0781L37.7127 85.2386L37.275 84.9746C30.6739 81.4722 24.0728 77.9697 17.4717 74.4673L16.7679 74.0429L16.5943 73.3443C14.3157 65.9327 12.0371 58.5211 9.75854 51.1095L9.50515 50.0897L9.94783 49.29C13.3265 42.3109 16.7052 35.3318 20.0839 28.3527L20.7539 27.1424L21.9181 26.807C28.9749 24.3487 36.0317 21.8903 43.0885 19.4319L44.7592 18.9506L46.0724 19.7423C52.6735 23.2448 59.2746 26.7473 65.8756 30.2497L67.5237 31.2433L67.9301 32.8792C69.3138 37.3799 70.6975 41.8806 72.0812 46.3813C72.9761 49.2922 73.871 52.2031 74.7659 55.114ZM65.1306 57.7899L74.7659 55.114L73.5029 50.0307L69.9482 56.4519L65.1306 57.7899Z" fill="url(#paint0_linear_302_3)" mask="url(#path-2-outside-1_302_3)"/>
</g>
<defs>
<filter id="filter0_d_302_3" x="4.37305" y="0" width="116.254" height="100.25" filterUnits="userSpaceOnUse" color-interpolation-filters="sRGB">
<feFlood flood-opacity="0" result="BackgroundImageFix"/>
<feColorMatrix in="SourceAlpha" type="matrix" values="0 0 0 0 0 0 0 0 0 0 0 0 0 0 0 0 0 0 127 0" result="hardAlpha"/>
<feOffset dy="4"/>
<feGaussianBlur stdDeviation="2"/>
<feComposite in2="hardAlpha" operator="out"/>
<feColorMatrix type="matrix" values="0 0 0 0 0 0 0 0 0 0 0 0 0 0 0 0 0 0 0.25 0"/>
<feBlend mode="normal" in2="BackgroundImageFix" result="effect1_dropShadow_302_3"/>
<feBlend mode="normal" in="SourceGraphic" in2="effect1_dropShadow_302_3" result="shape"/>
</filter>
<filter id="filter1_d_302_3" x="5.50488" y="18.9507" width="73.2607" height="74.2878" filterUnits="userSpaceOnUse" color-interpolation-filters="sRGB">
<feFlood flood-opacity="0" result="BackgroundImageFix"/>
<feColorMatrix in="SourceAlpha" type="matrix" values="0 0 0 0 0 0 0 0 0 0 0 0 0 0 0 0 0 0 127 0" result="hardAlpha"/>
<feOffset dy="4"/>
<feGaussianBlur stdDeviation="2"/>
<feComposite in2="hardAlpha" operator="out"/>
<feColorMatrix type="matrix" values="0 0 0 0 0 0 0 0 0 0 0 0 0 0 0 0 0 0 0.25 0"/>
<feBlend mode="normal" in2="BackgroundImageFix" result="effect1_dropShadow_302_3"/>
<feBlend mode="normal" in="SourceGraphic" in2="effect1_dropShadow_302_3" result="shape"/>
</filter>
<linearGradient id="paint0_linear_302_3" x1="37.8908" y1="83.8869" x2="44.2248" y2="23.0056" gradientUnits="userSpaceOnUse">
<stop stop-color="#FDB81C"/>
<stop offset="1" stop-color="#C8202F"/>
</linearGradient>
</defs>
</svg>
